<svg xmlns="http://www.w3.org/2000/svg" viewBox="0 0 512 512"><path fill="#060" d="M0 256c0 110.1 69.5 203.9 167 240.1V15.9C69.5 52.1 0 145.9 0 256z"/><path d="M512 256C512 114.6 397.4 0 256 0c-31.3 0-61.3 5.6-89 15.9v480.2c27.7 10.3 57.7 15.9 89 15.9 141.4 0 256-114.6 256-256z" fill="red"/><circle cx="167" cy="256" r="89" fill="#ff0"/><path d="M116.9 211.5v55.7c0 27.7 22.4 50.1 50.1 50.1s50.1-22.4 50.1-50.1v-55.7H116.9z" fill="red"/><path fill="#fff" d="M167 283.8c-9.2 0-16.7-7.5-16.7-16.7v-22.3h33.4v22.3c0 9.2-7.5 16.7-16.7 16.7z"/></svg>
